<svg width="236" height="77" viewBox="0 0 236 77" fill="none" xmlns="http://www.w3.org/2000/svg">
<path d="M1.63636 15.4545H8.09091L21 37.1818H21.5455L34.4545 15.4545H40.9091L24.0909 42.8182V62H18.4545V42.8182L1.63636 15.4545ZM45.358 62H39.4489L56.5398 15.4545H62.358L79.4489 62H73.5398L59.6307 22.8182H59.267L45.358 62ZM47.5398 43.8182H71.358V48.8182H47.5398V43.8182ZM86.6989 62V15.4545H102.426C106.063 15.4545 109.047 16.0758 111.381 17.3182C113.714 18.5455 115.441 20.2348 116.562 22.3864C117.684 24.5379 118.244 26.9848 118.244 29.7273C118.244 32.4697 117.684 34.9015 116.562 37.0227C115.441 39.1439 113.722 40.8106 111.403 42.0227C109.085 43.2197 106.123 43.8182 102.517 43.8182H89.7898V38.7273H102.335C104.82 38.7273 106.82 38.3636 108.335 37.6364C109.866 36.9091 110.972 35.8788 111.653 34.5455C112.35 33.197 112.699 31.5909 112.699 29.7273C112.699 27.8636 112.35 26.2348 111.653 24.8409C110.956 23.447 109.843 22.3712 108.312 21.6136C106.782 20.8409 104.759 20.4545 102.244 20.4545H92.3352V62H86.6989ZM108.608 41.0909L120.062 62H113.517L102.244 41.0909H108.608ZM164.545 15.4545V62H159.091L133.727 25.4545H133.273V62H127.636V15.4545H133.091L158.545 52.0909H159V15.4545H164.545Z" fill="black"/>
<path d="M171.748 16.2727H175.17L179.262 23.6726H179.425L183.517 16.2727H186.939L180.854 26.7599V33H177.832V26.7599L171.748 16.2727ZM189.986 33H186.752L192.641 16.2727H196.382L202.279 33H199.044L194.577 19.7031H194.446L189.986 33ZM190.093 26.4414H198.914V28.8754H190.093V26.4414ZM204.942 33V16.2727H211.215C212.5 16.2727 213.578 16.496 214.449 16.9425C215.326 17.389 215.987 18.0152 216.434 18.821C216.886 19.6214 217.112 20.5553 217.112 21.6225C217.112 22.6952 216.883 23.6263 216.426 24.4158C215.974 25.1999 215.307 25.8071 214.424 26.2372C213.542 26.6619 212.459 26.8743 211.174 26.8743H206.706V24.3587H210.765C211.517 24.3587 212.132 24.2552 212.611 24.0483C213.09 23.8359 213.444 23.5283 213.673 23.1254C213.907 22.717 214.024 22.216 214.024 21.6225C214.024 21.029 213.907 20.5226 213.673 20.1033C213.439 19.6786 213.082 19.3574 212.603 19.1396C212.124 18.9163 211.506 18.8047 210.749 18.8047H207.972V33H204.942ZM213.583 25.4205L217.724 33H214.343L210.275 25.4205H213.583ZM234.107 16.2727V33H231.412L223.53 21.6062H223.391V33H220.361V16.2727H223.073L230.946 27.6747H231.093V16.2727H234.107ZM171.748 44.2727H175.17L179.262 51.6726H179.425L183.517 44.2727H186.939L180.854 54.7599V61H177.832V54.7599L171.748 44.2727ZM189.986 61H186.752L192.641 44.2727H196.382L202.279 61H199.044L194.577 47.7031H194.446L189.986 61ZM190.093 54.4414H198.914V56.8754H190.093V54.4414ZM204.942 61V44.2727H211.215C212.5 44.2727 213.578 44.496 214.449 44.9425C215.326 45.389 215.987 46.0152 216.434 46.821C216.886 47.6214 217.112 48.5553 217.112 49.6225C217.112 50.6952 216.883 51.6263 216.426 52.4158C215.974 53.1999 215.307 53.8071 214.424 54.2372C213.542 54.6619 212.459 54.8743 211.174 54.8743H206.706V52.3587H210.765C211.517 52.3587 212.132 52.2552 212.611 52.0483C213.09 51.8359 213.444 51.5283 213.673 51.1254C213.907 50.717 214.024 50.216 214.024 49.6225C214.024 49.029 213.907 48.5226 213.673 48.1033C213.439 47.6786 213.082 47.3574 212.603 47.1396C212.124 46.9163 211.506 46.8047 210.749 46.8047H207.972V61H204.942ZM213.583 53.4205L217.724 61H214.343L210.275 53.4205H213.583ZM234.107 44.2727V61H231.412L223.53 49.6062H223.391V61H220.361V44.2727H223.073L230.946 55.6747H231.093V44.2727H234.107Z" fill="black"/>
</svg>
